solid OpenSCAD_Model
  facet normal 0.866027 -0.499997 0
    outer loop
      vertex -2.78564 -19.4049 2.772
      vertex -2.77128 -19.38 3.20435e-007
      vertex -2.77128 -19.38 2.772
    endloop
  endfacet
  facet normal 0.866027 -0.499997 0
    outer loop
      vertex -2.77128 -19.38 3.20435e-007
      vertex -2.78564 -19.4049 2.772
      vertex -2.78564 -19.4049 3.20435e-007
    endloop
  endfacet
  facet normal -0.866017 0.500014 0
    outer loop
      vertex -0.0143591 -21.0049 3.20435e-007
      vertex 1.3097e-007 -20.98 2.772
      vertex 1.3097e-007 -20.98 3.20435e-007
    endloop
  endfacet
  facet normal -0.866017 0.500014 0
    outer loop
      vertex 1.3097e-007 -20.98 2.772
      vertex -0.0143591 -21.0049 3.20435e-007
      vertex -0.0143591 -21.0049 2.772
    endloop
  endfacet
  facet normal -0.866027 0.499997 0
    outer loop
      vertex 2.77128 -16.18 3.20435e-007
      vertex 2.78564 -16.1551 2.772
      vertex 2.78564 -16.1551 3.20435e-007
    endloop
  endfacet
  facet normal -0.866027 0.499997 0
    outer loop
      vertex 2.78564 -16.1551 2.772
      vertex 2.77128 -16.18 3.20435e-007
      vertex 2.77128 -16.18 2.772
    endloop
  endfacet
  facet normal -0.5 -0.866025 0
    outer loop
      vertex 0.265281 -14.7 3.20435e-007
      vertex 2.78564 -16.1551 2.772
      vertex 0.265281 -14.7 2.772
    endloop
  endfacet
  facet normal -0.5 -0.866025 -0
    outer loop
      vertex 2.78564 -16.1551 2.772
      vertex 0.265281 -14.7 3.20435e-007
      vertex 2.78564 -16.1551 3.20435e-007
    endloop
  endfacet
  facet normal 0.5 0.866026 -0
    outer loop
      vertex -0.0143591 -21.0049 3.20435e-007
      vertex -2.78564 -19.4049 2.772
      vertex -0.0143591 -21.0049 2.772
    endloop
  endfacet
  facet normal 0.5 0.866026 0
    outer loop
      vertex -2.78564 -19.4049 2.772
      vertex -0.0143591 -21.0049 3.20435e-007
      vertex -2.78564 -19.4049 3.20435e-007
    endloop
  endfacet
  facet normal 0.866015 0.500018 0
    outer loop
      vertex 0.0143595 -21.0049 2.772
      vertex 1.3097e-007 -20.98 3.20435e-007
      vertex 1.3097e-007 -20.98 2.772
    endloop
  endfacet
  facet normal 0.866015 0.500018 0
    outer loop
      vertex 1.3097e-007 -20.98 3.20435e-007
      vertex 0.0143595 -21.0049 2.772
      vertex 0.0143595 -21.0049 3.20435e-007
    endloop
  endfacet
  facet normal 0.866033 0.499986 0
    outer loop
      vertex -2.77128 -16.18 2.772
      vertex -2.78564 -16.1551 3.20435e-007
      vertex -2.78564 -16.1551 2.772
    endloop
  endfacet
  facet normal 0.866033 0.499986 0
    outer loop
      vertex -2.78564 -16.1551 3.20435e-007
      vertex -2.77128 -16.18 2.772
      vertex -2.77128 -16.18 3.20435e-007
    endloop
  endfacet
  facet normal -0.866033 -0.499986 0
    outer loop
      vertex 2.78564 -19.4049 3.20435e-007
      vertex 2.77128 -19.38 2.772
      vertex 2.77128 -19.38 3.20435e-007
    endloop
  endfacet
  facet normal -0.866033 -0.499986 0
    outer loop
      vertex 2.77128 -19.38 2.772
      vertex 2.78564 -19.4049 3.20435e-007
      vertex 2.78564 -19.4049 2.772
    endloop
  endfacet
  facet normal -0.5 0.866026 0
    outer loop
      vertex 2.78564 -19.4049 3.20435e-007
      vertex 0.0143595 -21.0049 2.772
      vertex 2.78564 -19.4049 2.772
    endloop
  endfacet
  facet normal -0.5 0.866026 0
    outer loop
      vertex 0.0143595 -21.0049 2.772
      vertex 2.78564 -19.4049 3.20435e-007
      vertex 0.0143595 -21.0049 3.20435e-007
    endloop
  endfacet
  facet normal 0.5 -0.866026 0
    outer loop
      vertex -2.78564 -16.1551 3.20435e-007
      vertex -0.265282 -14.7 2.772
      vertex -2.78564 -16.1551 2.772
    endloop
  endfacet
  facet normal 0.5 -0.866026 0
    outer loop
      vertex -0.265282 -14.7 2.772
      vertex -2.78564 -16.1551 3.20435e-007
      vertex -0.265282 -14.7 3.20435e-007
    endloop
  endfacet
  facet normal 0 -1 0
    outer loop
      vertex 2.77128 -16.18 3.20435e-007
      vertex 2.8 -16.18 2.772
      vertex 2.77128 -16.18 2.772
    endloop
  endfacet
  facet normal 0 -1 -0
    outer loop
      vertex 2.8 -16.18 2.772
      vertex 2.77128 -16.18 3.20435e-007
      vertex 2.8 -16.18 3.20435e-007
    endloop
  endfacet
  facet normal 0 -1 0
    outer loop
      vertex -2.8 -16.18 3.20435e-007
      vertex -2.77128 -16.18 2.772
      vertex -2.8 -16.18 2.772
    endloop
  endfacet
  facet normal 0 -1 -0
    outer loop
      vertex -2.77128 -16.18 2.772
      vertex -2.8 -16.18 3.20435e-007
      vertex -2.77128 -16.18 3.20435e-007
    endloop
  endfacet
  facet normal 0 1 -0
    outer loop
      vertex 2.8 -19.38 3.20435e-007
      vertex 2.77128 -19.38 2.772
      vertex 2.8 -19.38 2.772
    endloop
  endfacet
  facet normal 0 1 0
    outer loop
      vertex 2.77128 -19.38 2.772
      vertex 2.8 -19.38 3.20435e-007
      vertex 2.77128 -19.38 3.20435e-007
    endloop
  endfacet
  facet normal 0 1 -0
    outer loop
      vertex -2.77128 -19.38 3.20435e-007
      vertex -2.8 -19.38 2.772
      vertex -2.77128 -19.38 2.772
    endloop
  endfacet
  facet normal 0 1 0
    outer loop
      vertex -2.8 -19.38 2.772
      vertex -2.77128 -19.38 3.20435e-007
      vertex -2.8 -19.38 3.20435e-007
    endloop
  endfacet
  facet normal -1 1.49012e-007 0
    outer loop
      vertex 2.8 -19.38 3.20435e-007
      vertex 2.8 -16.18 2.772
      vertex 2.8 -16.18 3.20435e-007
    endloop
  endfacet
  facet normal -1 1.49012e-007 0
    outer loop
      vertex 2.8 -16.18 2.772
      vertex 2.8 -19.38 3.20435e-007
      vertex 2.8 -19.38 2.772
    endloop
  endfacet
  facet normal 1 -1.49012e-007 0
    outer loop
      vertex -2.8 -19.38 2.772
      vertex -2.8 -16.18 3.20435e-007
      vertex -2.8 -16.18 2.772
    endloop
  endfacet
  facet normal 1 -1.49012e-007 0
    outer loop
      vertex -2.8 -16.18 3.20435e-007
      vertex -2.8 -19.38 2.772
      vertex -2.8 -19.38 3.20435e-007
    endloop
  endfacet
  facet normal 0.998027 0.0627895 0
    outer loop
      vertex 5.88 -17.78 2.772
      vertex 5.83363 -17.043 3.20435e-007
      vertex 5.83363 -17.043 2.772
    endloop
  endfacet
  facet normal 0.998027 0.0627895 0
    outer loop
      vertex 5.83363 -17.043 3.20435e-007
      vertex 5.88 -17.78 2.772
      vertex 5.88 -17.78 3.20435e-007
    endloop
  endfacet
  facet normal -0.998027 0.0627895 0
    outer loop
      vertex -5.88 -17.78 3.20435e-007
      vertex -5.83363 -17.043 2.772
      vertex -5.83363 -17.043 3.20435e-007
    endloop
  endfacet
  facet normal -0.998027 0.0627895 0
    outer loop
      vertex -5.83363 -17.043 2.772
      vertex -5.88 -17.78 3.20435e-007
      vertex -5.88 -17.78 2.772
    endloop
  endfacet
  facet normal 0 -1 0
    outer loop
      vertex -0.369207 -23.6484 3.20435e-007
      vertex 0.369207 -23.6484 2.772
      vertex -0.369207 -23.6484 2.772
    endloop
  endfacet
  facet normal 0 -1 -0
    outer loop
      vertex 0.369207 -23.6484 2.772
      vertex -0.369207 -23.6484 3.20435e-007
      vertex 0.369207 -23.6484 3.20435e-007
    endloop
  endfacet
  facet normal 0.684547 0.728969 -0
    outer loop
      vertex 4.28633 -13.7549 3.20435e-007
      vertex 3.74805 -13.2494 2.772
      vertex 4.28633 -13.7549 2.772
    endloop
  endfacet
  facet normal 0.684547 0.728969 0
    outer loop
      vertex 3.74805 -13.2494 2.772
      vertex 4.28633 -13.7549 3.20435e-007
      vertex 3.74805 -13.2494 3.20435e-007
    endloop
  endfacet
  facet normal -0.684547 0.728969 0
    outer loop
      vertex -3.74805 -13.2494 3.20435e-007
      vertex -4.28633 -13.7549 2.772
      vertex -3.74805 -13.2494 2.772
    endloop
  endfacet
  facet normal -0.684547 0.728969 0
    outer loop
      vertex -4.28633 -13.7549 2.772
      vertex -3.74805 -13.2494 3.20435e-007
      vertex -4.28633 -13.7549 3.20435e-007
    endloop
  endfacet
  facet normal 0.904828 0.425778 0
    outer loop
      vertex 5.46708 -15.6154 2.772
      vertex 5.15268 -14.9473 3.20435e-007
      vertex 5.15268 -14.9473 2.772
    endloop
  endfacet
  facet normal 0.904828 0.425778 0
    outer loop
      vertex 5.15268 -14.9473 3.20435e-007
      vertex 5.46708 -15.6154 2.772
      vertex 5.46708 -15.6154 3.20435e-007
    endloop
  endfacet
  facet normal 0.982287 0.187381 0
    outer loop
      vertex 5.83363 -17.043 2.772
      vertex 5.69527 -16.3177 3.20435e-007
      vertex 5.69527 -16.3177 2.772
    endloop
  endfacet
  facet normal 0.982287 0.187381 0
    outer loop
      vertex 5.69527 -16.3177 3.20435e-007
      vertex 5.83363 -17.043 2.772
      vertex 5.83363 -17.043 3.20435e-007
    endloop
  endfacet
  facet normal 0.481753 0.876307 -0
    outer loop
      vertex 3.15066 -12.8154 3.20435e-007
      vertex 2.8 -12.6226 2.772
      vertex 3.15066 -12.8154 2.772
    endloop
  endfacet
  facet normal 0.481753 0.876307 0
    outer loop
      vertex 2.8 -12.6226 2.772
      vertex 3.15066 -12.8154 3.20435e-007
      vertex 2.8 -12.6226 3.20435e-007
    endloop
  endfacet
  facet normal -0.904828 0.425778 0
    outer loop
      vertex -5.46708 -15.6154 3.20435e-007
      vertex -5.15268 -14.9473 2.772
      vertex -5.15268 -14.9473 3.20435e-007
    endloop
  endfacet
  facet normal -0.904828 0.425778 0
    outer loop
      vertex -5.15268 -14.9473 2.772
      vertex -5.46708 -15.6154 3.20435e-007
      vertex -5.46708 -15.6154 2.772
    endloop
  endfacet
  facet normal -0.844327 0.535828 0
    outer loop
      vertex -5.15268 -14.9473 3.20435e-007
      vertex -4.75702 -14.3238 2.772
      vertex -4.75702 -14.3238 3.20435e-007
    endloop
  endfacet
  facet normal -0.844327 0.535828 0
    outer loop
      vertex -4.75702 -14.3238 2.772
      vertex -5.15268 -14.9473 3.20435e-007
      vertex -5.15268 -14.9473 2.772
    endloop
  endfacet
  facet normal 0 0 1
    outer loop
      vertex -2.77128 -19.38 2.772
      vertex -2.8 -19.38 2.772
      vertex -2.78564 -19.4049 2.772
    endloop
  endfacet
  facet normal 0 0 1
    outer loop
      vertex 2.8 -19.38 2.772
      vertex 2.77128 -19.38 2.772
      vertex 2.78564 -19.4049 2.772
    endloop
  endfacet
  facet normal 0 0 1
    outer loop
      vertex -2.8 12.6226 2.772
      vertex 2.8 12.6226 2.772
      vertex 0.265282 14.7 2.772
    endloop
  endfacet
  facet normal 0 -0 1
    outer loop
      vertex 2.78564 16.1551 2.772
      vertex 2.8 16.18 2.772
      vertex 2.77128 16.18 2.772
    endloop
  endfacet
  facet normal 0 0 1
    outer loop
      vertex 2.8 -16.18 2.772
      vertex 5.88 -17.78 2.772
      vertex 5.83363 -17.043 2.772
    endloop
  endfacet
  facet normal 0 0 1
    outer loop
      vertex 2.8 -16.18 2.772
      vertex 5.83363 -17.043 2.772
      vertex 5.69527 -16.3177 2.772
    endloop
  endfacet
  facet normal 0 0 1
    outer loop
      vertex 2.8 -19.38 2.772
      vertex 5.88 -17.78 2.772
      vertex 2.8 -16.18 2.772
    endloop
  endfacet
  facet normal -0 0 1
    outer loop
      vertex 2.8 -16.18 2.772
      vertex 5.69527 -16.3177 2.772
      vertex 5.46708 -15.6154 2.772
    endloop
  endfacet
  facet normal 0 0 1
    outer loop
      vertex 5.88 -17.78 2.772
      vertex 2.8 -19.38 2.772
      vertex 5.83363 -18.517 2.772
    endloop
  endfacet
  facet normal 0 0 1
    outer loop
      vertex 2.8 -16.18 2.772
      vertex 5.46708 -15.6154 2.772
      vertex 5.15268 -14.9473 2.772
    endloop
  endfacet
  facet normal 0 0 1
    outer loop
      vertex 5.83363 -18.517 2.772
      vertex 2.8 -19.38 2.772
      vertex 5.69527 -19.2423 2.772
    endloop
  endfacet
  facet normal 0 0 1
    outer loop
      vertex 2.78564 -16.1551 2.772
      vertex 5.15268 -14.9473 2.772
      vertex 4.75702 -14.3238 2.772
    endloop
  endfacet
  facet normal 0 0 1
    outer loop
      vertex 5.69527 -19.2423 2.772
      vertex 2.8 -19.38 2.772
      vertex 5.46708 -19.9446 2.772
    endloop
  endfacet
  facet normal 0 0 1
    outer loop
      vertex 2.78564 -16.1551 2.772
      vertex 4.75702 -14.3238 2.772
      vertex 4.28633 -13.7549 2.772
    endloop
  endfacet
  facet normal 0 0 1
    outer loop
      vertex 5.46708 -19.9446 2.772
      vertex 2.8 -19.38 2.772
      vertex 5.15268 -20.6127 2.772
    endloop
  endfacet
  facet normal 0 0 1
    outer loop
      vertex 2.78564 -16.1551 2.772
      vertex 4.28633 -13.7549 2.772
      vertex 3.74805 -13.2494 2.772
    endloop
  endfacet
  facet normal -0 0 1
    outer loop
      vertex 2.78564 -19.4049 2.772
      vertex 5.15268 -20.6127 2.772
      vertex 2.8 -19.38 2.772
    endloop
  endfacet
  facet normal 0 0 1
    outer loop
      vertex 2.78564 -16.1551 2.772
      vertex 3.74805 -13.2494 2.772
      vertex 3.15066 -12.8154 2.772
    endloop
  endfacet
  facet normal 0 0 1
    outer loop
      vertex 5.15268 -20.6127 2.772
      vertex 2.78564 -19.4049 2.772
      vertex 4.75702 -21.2362 2.772
    endloop
  endfacet
  facet normal 0 0 1
    outer loop
      vertex 2.78564 -16.1551 2.772
      vertex 3.15066 -12.8154 2.772
      vertex 2.8 -12.6226 2.772
    endloop
  endfacet
  facet normal 0 0 1
    outer loop
      vertex 4.75702 -21.2362 2.772
      vertex 2.78564 -19.4049 2.772
      vertex 4.28633 -21.8051 2.772
    endloop
  endfacet
  facet normal 0 0 1
    outer loop
      vertex 4.28633 -21.8051 2.772
      vertex 2.78564 -19.4049 2.772
      vertex 3.74805 -22.3106 2.772
    endloop
  endfacet
  facet normal 0 0 1
    outer loop
      vertex 3.74805 -22.3106 2.772
      vertex 2.78564 -19.4049 2.772
      vertex 3.15066 -22.7446 2.772
    endloop
  endfacet
  facet normal -0 0 1
    outer loop
      vertex 0.0143595 -21.0049 2.772
      vertex 3.15066 -22.7446 2.772
      vertex 2.78564 -19.4049 2.772
    endloop
  endfacet
  facet normal 0 0 1
    outer loop
      vertex 3.15066 -22.7446 2.772
      vertex 0.0143595 -21.0049 2.772
      vertex 2.50358 -23.1004 2.772
    endloop
  endfacet
  facet normal 0 0 1
    outer loop
      vertex 2.50358 -23.1004 2.772
      vertex 0.0143595 -21.0049 2.772
      vertex 1.81702 -23.3722 2.772
    endloop
  endfacet
  facet normal 0 0 1
    outer loop
      vertex 1.81702 -23.3722 2.772
      vertex 0.0143595 -21.0049 2.772
      vertex 1.1018 -23.5558 2.772
    endloop
  endfacet
  facet normal 0 0 1
    outer loop
      vertex 1.1018 -23.5558 2.772
      vertex 0.0143595 -21.0049 2.772
      vertex 0.369207 -23.6484 2.772
    endloop
  endfacet
  facet normal 0 0 1
    outer loop
      vertex -0.0143591 -21.0049 2.772
      vertex 0.0143595 -21.0049 2.772
      vertex 1.3097e-007 -20.98 2.772
    endloop
  endfacet
  facet normal 0 0 1
    outer loop
      vertex 0.0143595 -21.0049 2.772
      vertex -0.0143591 -21.0049 2.772
      vertex 0.369207 -23.6484 2.772
    endloop
  endfacet
  facet normal 0 0 1
    outer loop
      vertex -0.0143591 -21.0049 2.772
      vertex -0.369207 -23.6484 2.772
      vertex 0.369207 -23.6484 2.772
    endloop
  endfacet
  facet normal 0 0 1
    outer loop
      vertex -0.0143591 -21.0049 2.772
      vertex -1.1018 -23.5558 2.772
      vertex -0.369207 -23.6484 2.772
    endloop
  endfacet
  facet normal 0 0 1
    outer loop
      vertex -0.0143591 -21.0049 2.772
      vertex -1.81702 -23.3722 2.772
      vertex -1.1018 -23.5558 2.772
    endloop
  endfacet
  facet normal 0 0 1
    outer loop
      vertex -0.0143591 -21.0049 2.772
      vertex -2.50358 -23.1004 2.772
      vertex -1.81702 -23.3722 2.772
    endloop
  endfacet
  facet normal 0 0 1
    outer loop
      vertex -3.15066 -22.7446 2.772
      vertex -0.0143591 -21.0049 2.772
      vertex -2.78564 -19.4049 2.772
    endloop
  endfacet
  facet normal 0 0 1
    outer loop
      vertex -5.15268 -20.6127 2.772
      vertex -2.78564 -19.4049 2.772
      vertex -2.8 -19.38 2.772
    endloop
  endfacet
  facet normal 0 0 1
    outer loop
      vertex -0.0143591 -21.0049 2.772
      vertex -3.15066 -22.7446 2.772
      vertex -2.50358 -23.1004 2.772
    endloop
  endfacet
  facet normal -0 0 1
    outer loop
      vertex -4.75702 -14.3238 2.772
      vertex -2.78564 -16.1551 2.772
      vertex -4.28633 -13.7549 2.772
    endloop
  endfacet
  facet normal -0 0 1
    outer loop
      vertex -5.15268 -14.9473 2.772
      vertex -2.78564 -16.1551 2.772
      vertex -4.75702 -14.3238 2.772
    endloop
  endfacet
  facet normal 0 0 1
    outer loop
      vertex -2.78564 -19.4049 2.772
      vertex -3.74805 -22.3106 2.772
      vertex -3.15066 -22.7446 2.772
    endloop
  endfacet
  facet normal 0 0 1
    outer loop
      vertex -2.78564 -16.1551 2.772
      vertex -5.15268 -14.9473 2.772
      vertex -2.8 -16.18 2.772
    endloop
  endfacet
  facet normal 0 0 1
    outer loop
      vertex -2.78564 -19.4049 2.772
      vertex -4.28633 -21.8051 2.772
      vertex -3.74805 -22.3106 2.772
    endloop
  endfacet
  facet normal -0 0 1
    outer loop
      vertex -5.46708 -15.6154 2.772
      vertex -2.8 -16.18 2.772
      vertex -5.15268 -14.9473 2.772
    endloop
  endfacet
  facet normal 0 0 1
    outer loop
      vertex -2.78564 -19.4049 2.772
      vertex -4.75702 -21.2362 2.772
      vertex -4.28633 -21.8051 2.772
    endloop
  endfacet
  facet normal 0 0 1
    outer loop
      vertex -5.69527 -16.3177 2.772
      vertex -2.8 -16.18 2.772
      vertex -5.46708 -15.6154 2.772
    endloop
  endfacet
  facet normal 0 0 1
    outer loop
      vertex -2.78564 -19.4049 2.772
      vertex -5.15268 -20.6127 2.772
      vertex -4.75702 -21.2362 2.772
    endloop
  endfacet
  facet normal 0 0 1
    outer loop
      vertex -5.83363 -17.043 2.772
      vertex -2.8 -16.18 2.772
      vertex -5.69527 -16.3177 2.772
    endloop
  endfacet
  facet normal 0 0 1
    outer loop
      vertex -2.8 -19.38 2.772
      vertex -5.46708 -19.9446 2.772
      vertex -5.15268 -20.6127 2.772
    endloop
  endfacet
  facet normal 0 0 1
    outer loop
      vertex -5.88 -17.78 2.772
      vertex -2.8 -16.18 2.772
      vertex -5.83363 -17.043 2.772
    endloop
  endfacet
  facet normal 0 0 1
    outer loop
      vertex -2.8 -19.38 2.772
      vertex -5.69527 -19.2423 2.772
      vertex -5.46708 -19.9446 2.772
    endloop
  endfacet
  facet normal 0 0 1
    outer loop
      vertex -2.8 -16.18 2.772
      vertex -5.88 -17.78 2.772
      vertex -2.8 -19.38 2.772
    endloop
  endfacet
  facet normal 0 0 1
    outer loop
      vertex -2.8 -19.38 2.772
      vertex -5.83363 -18.517 2.772
      vertex -5.69527 -19.2423 2.772
    endloop
  endfacet
  facet normal 0 0 1
    outer loop
      vertex -2.8 -19.38 2.772
      vertex -5.88 -17.78 2.772
      vertex -5.83363 -18.517 2.772
    endloop
  endfacet
  facet normal 0 0 1
    outer loop
      vertex 2.8 16.24 2.772
      vertex 5.88 17.78 2.772
      vertex 5.83363 18.517 2.772
    endloop
  endfacet
  facet normal 0 0 1
    outer loop
      vertex 2.8 16.24 2.772
      vertex 5.83363 18.517 2.772
      vertex 5.69527 19.2423 2.772
    endloop
  endfacet
  facet normal 0 0 1
    outer loop
      vertex 5.88 17.78 2.772
      vertex 2.8 16.24 2.772
      vertex 5.83363 17.043 2.772
    endloop
  endfacet
  facet normal 0 0 1
    outer loop
      vertex 2.8 16.24 2.772
      vertex 5.69527 19.2423 2.772
      vertex 5.46708 19.9446 2.772
    endloop
  endfacet
  facet normal 0 0 1
    outer loop
      vertex 5.83363 17.043 2.772
      vertex 2.8 16.24 2.772
      vertex 5.69527 16.3177 2.772
    endloop
  endfacet
  facet normal 0 0 1
    outer loop
      vertex 2.8 16.24 2.772
      vertex 5.46708 19.9446 2.772
      vertex 5.15268 20.6127 2.772
    endloop
  endfacet
  facet normal 0 0 1
    outer loop
      vertex 5.69527 16.3177 2.772
      vertex 2.8 16.24 2.772
      vertex 5.46708 15.6154 2.772
    endloop
  endfacet
  facet normal 0 0 1
    outer loop
      vertex 2.8 16.24 2.772
      vertex 5.15268 20.6127 2.772
      vertex 4.75702 21.2362 2.772
    endloop
  endfacet
  facet normal -0 0 1
    outer loop
      vertex 2.8 16.18 2.772
      vertex 5.46708 15.6154 2.772
      vertex 2.8 16.24 2.772
    endloop
  endfacet
  facet normal 0 0 1
    outer loop
      vertex 2.8 16.24 2.772
      vertex 4.75702 21.2362 2.772
      vertex 4.28633 21.8051 2.772
    endloop
  endfacet
  facet normal 0 0 1
    outer loop
      vertex 5.46708 15.6154 2.772
      vertex 2.8 16.18 2.772
      vertex 5.15268 14.9473 2.772
    endloop
  endfacet
  facet normal 0 0 1
    outer loop
      vertex 2.8 16.24 2.772
      vertex 4.28633 21.8051 2.772
      vertex 3.74805 22.3106 2.772
    endloop
  endfacet
  facet normal -0 0 1
    outer loop
      vertex 2.78564 16.1551 2.772
      vertex 5.15268 14.9473 2.772
      vertex 2.8 16.18 2.772
    endloop
  endfacet
  facet normal 0 0 1
    outer loop
      vertex 2.8 16.24 2.772
      vertex 3.74805 22.3106 2.772
      vertex 3.15066 22.7446 2.772
    endloop
  endfacet
  facet normal 0 0 1
    outer loop
      vertex 5.15268 14.9473 2.772
      vertex 2.78564 16.1551 2.772
      vertex 4.75702 14.3238 2.772
    endloop
  endfacet
  facet normal 0 0 1
    outer loop
      vertex 2.8 16.24 2.772
      vertex 3.15066 22.7446 2.772
      vertex 2.8 22.9374 2.772
    endloop
  endfacet
  facet normal 0 0 1
    outer loop
      vertex 4.75702 14.3238 2.772
      vertex 2.78564 16.1551 2.772
      vertex 4.28633 13.7549 2.772
    endloop
  endfacet
  facet normal 0 0 1
    outer loop
      vertex 4.28633 13.7549 2.772
      vertex 2.78564 16.1551 2.772
      vertex 3.74805 13.2494 2.772
    endloop
  endfacet
  facet normal 0 0 1
    outer loop
      vertex 3.74805 13.2494 2.772
      vertex 2.78564 16.1551 2.772
      vertex 3.15066 12.8154 2.772
    endloop
  endfacet
  facet normal -0 0 1
    outer loop
      vertex 0.265282 14.7 2.772
      vertex 3.15066 12.8154 2.772
      vertex 2.78564 16.1551 2.772
    endloop
  endfacet
  facet normal 0 0 1
    outer loop
      vertex 3.15066 12.8154 2.772
      vertex 0.265282 14.7 2.772
      vertex 2.8 12.6226 2.772
    endloop
  endfacet
  facet normal 0 0 1
    outer loop
      vertex 5.15268 -14.9473 2.772
      vertex 2.78564 -16.1551 2.772
      vertex 2.8 -16.18 2.772
    endloop
  endfacet
  facet normal 0 0 1
    outer loop
      vertex 2.8 -16.18 2.772
      vertex 2.78564 -16.1551 2.772
      vertex 2.77128 -16.18 2.772
    endloop
  endfacet
  facet normal 0 0 1
    outer loop
      vertex 2.8 12.6226 2.772
      vertex -2.8 12.6226 2.772
      vertex 2.8 -12.6226 2.772
    endloop
  endfacet
  facet normal 0 0 1
    outer loop
      vertex 2.8 -12.6226 2.772
      vertex 0.265281 -14.7 2.772
      vertex 2.78564 -16.1551 2.772
    endloop
  endfacet
  facet normal 0 0 1
    outer loop
      vertex -2.8 12.6226 2.772
      vertex 0.265282 14.7 2.772
      vertex -0.265281 14.7 2.772
    endloop
  endfacet
  facet normal 0 0 1
    outer loop
      vertex -2.8 -12.6226 2.772
      vertex 2.8 -12.6226 2.772
      vertex -2.8 12.6226 2.772
    endloop
  endfacet
  facet normal 0 0 1
    outer loop
      vertex 0.265281 -14.7 2.772
      vertex -2.8 -12.6226 2.772
      vertex -0.265282 -14.7 2.772
    endloop
  endfacet
  facet normal 0 0 1
    outer loop
      vertex -3.15066 12.8154 2.772
      vertex -0.265281 14.7 2.772
      vertex -2.78564 16.1551 2.772
    endloop
  endfacet
  facet normal 0 0 1
    outer loop
      vertex -2.78564 -16.1551 2.772
      vertex -2.8 -16.18 2.772
      vertex -2.77128 -16.18 2.772
    endloop
  endfacet
  facet normal 0 0 1
    outer loop
      vertex 2.8 -12.6226 2.772
      vertex -2.8 -12.6226 2.772
      vertex 0.265281 -14.7 2.772
    endloop
  endfacet
  facet normal -0 0 1
    outer loop
      vertex -2.8 16.18 2.772
      vertex -2.78564 16.1551 2.772
      vertex -2.77128 16.18 2.772
    endloop
  endfacet
  facet normal 0 0 1
    outer loop
      vertex -5.15268 14.9473 2.772
      vertex -2.78564 16.1551 2.772
      vertex -2.8 16.18 2.772
    endloop
  endfacet
  facet normal -0 0 1
    outer loop
      vertex -3.15066 -12.8154 2.772
      vertex -0.265282 -14.7 2.772
      vertex -2.8 -12.6226 2.772
    endloop
  endfacet
  facet normal 0 0 1
    outer loop
      vertex -0.265282 -14.7 2.772
      vertex -3.15066 -12.8154 2.772
      vertex -2.78564 -16.1551 2.772
    endloop
  endfacet
  facet normal -0 0 1
    outer loop
      vertex -3.74805 -13.2494 2.772
      vertex -2.78564 -16.1551 2.772
      vertex -3.15066 -12.8154 2.772
    endloop
  endfacet
  facet normal -0 0 1
    outer loop
      vertex -4.28633 -13.7549 2.772
      vertex -2.78564 -16.1551 2.772
      vertex -3.74805 -13.2494 2.772
    endloop
  endfacet
  facet normal -0 0 1
    outer loop
      vertex -3.15066 22.7446 2.772
      vertex -2.8 16.24 2.772
      vertex -2.8 22.9374 2.772
    endloop
  endfacet
  facet normal -0 0 1
    outer loop
      vertex -3.74805 22.3106 2.772
      vertex -2.8 16.24 2.772
      vertex -3.15066 22.7446 2.772
    endloop
  endfacet
  facet normal -0 0 1
    outer loop
      vertex -4.28633 21.8051 2.772
      vertex -2.8 16.24 2.772
      vertex -3.74805 22.3106 2.772
    endloop
  endfacet
  facet normal -0 0 1
    outer loop
      vertex -4.75702 21.2362 2.772
      vertex -2.8 16.24 2.772
      vertex -4.28633 21.8051 2.772
    endloop
  endfacet
  facet normal 0 0 1
    outer loop
      vertex -2.78564 16.1551 2.772
      vertex -3.74805 13.2494 2.772
      vertex -3.15066 12.8154 2.772
    endloop
  endfacet
  facet normal 0 0 1
    outer loop
      vertex -0.265281 14.7 2.772
      vertex -3.15066 12.8154 2.772
      vertex -2.8 12.6226 2.772
    endloop
  endfacet
  facet normal -0 0 1
    outer loop
      vertex -5.15268 20.6127 2.772
      vertex -2.8 16.24 2.772
      vertex -4.75702 21.2362 2.772
    endloop
  endfacet
  facet normal 0 0 1
    outer loop
      vertex -2.78564 16.1551 2.772
      vertex -4.28633 13.7549 2.772
      vertex -3.74805 13.2494 2.772
    endloop
  endfacet
  facet normal -0 0 1
    outer loop
      vertex -5.46708 19.9446 2.772
      vertex -2.8 16.24 2.772
      vertex -5.15268 20.6127 2.772
    endloop
  endfacet
  facet normal 0 0 1
    outer loop
      vertex -2.78564 16.1551 2.772
      vertex -4.75702 14.3238 2.772
      vertex -4.28633 13.7549 2.772
    endloop
  endfacet
  facet normal -0 0 1
    outer loop
      vertex -5.69527 19.2423 2.772
      vertex -2.8 16.24 2.772
      vertex -5.46708 19.9446 2.772
    endloop
  endfacet
  facet normal 0 0 1
    outer loop
      vertex -2.78564 16.1551 2.772
      vertex -5.15268 14.9473 2.772
      vertex -4.75702 14.3238 2.772
    endloop
  endfacet
  facet normal -0 0 1
    outer loop
      vertex -5.83363 18.517 2.772
      vertex -2.8 16.24 2.772
      vertex -5.69527 19.2423 2.772
    endloop
  endfacet
  facet normal 0 0 1
    outer loop
      vertex -2.8 16.18 2.772
      vertex -5.46708 15.6154 2.772
      vertex -5.15268 14.9473 2.772
    endloop
  endfacet
  facet normal -0 0 1
    outer loop
      vertex -5.88 17.78 2.772
      vertex -2.8 16.24 2.772
      vertex -5.83363 18.517 2.772
    endloop
  endfacet
  facet normal 0 0 1
    outer loop
      vertex -2.8 16.24 2.772
      vertex -5.46708 15.6154 2.772
      vertex -2.8 16.18 2.772
    endloop
  endfacet
  facet normal -0 -0 1
    outer loop
      vertex -5.83363 17.043 2.772
      vertex -2.8 16.24 2.772
      vertex -5.88 17.78 2.772
    endloop
  endfacet
  facet normal 0 -0 1
    outer loop
      vertex -5.46708 15.6154 2.772
      vertex -2.8 16.24 2.772
      vertex -5.69527 16.3177 2.772
    endloop
  endfacet
  facet normal -0 -0 1
    outer loop
      vertex -5.69527 16.3177 2.772
      vertex -2.8 16.24 2.772
      vertex -5.83363 17.043 2.772
    endloop
  endfacet
  facet normal -0.587785 0.809017 0
    outer loop
      vertex -3.15066 -12.8154 3.20435e-007
      vertex -3.74805 -13.2494 2.772
      vertex -3.15066 -12.8154 2.772
    endloop
  endfacet
  facet normal -0.587785 0.809017 0
    outer loop
      vertex -3.74805 -13.2494 2.772
      vertex -3.15066 -12.8154 3.20435e-007
      vertex -3.74805 -13.2494 3.20435e-007
    endloop
  endfacet
  facet normal 0 0 -1
    outer loop
      vertex -5.15268 -14.9473 3.20435e-007
      vertex -2.78564 -16.1551 3.20435e-007
      vertex -2.8 -16.18 3.20435e-007
    endloop
  endfacet
  facet normal 0 0 -1
    outer loop
      vertex -2.8 -16.18 3.20435e-007
      vertex -2.78564 -16.1551 3.20435e-007
      vertex -2.77128 -16.18 3.20435e-007
    endloop
  endfacet
  facet normal 0 0 -1
    outer loop
      vertex 3.15066 12.8154 3.20435e-007
      vertex 0.265282 14.7 3.20435e-007
      vertex 2.78564 16.1551 3.20435e-007
    endloop
  endfacet
  facet normal 0 0 -1
    outer loop
      vertex -0.265282 -14.7 3.20435e-007
      vertex 2.8 -12.6226 3.20435e-007
      vertex 0.265281 -14.7 3.20435e-007
    endloop
  endfacet
  facet normal 0 0 -1
    outer loop
      vertex 2.8 -12.6226 3.20435e-007
      vertex -0.265281 14.7 3.20435e-007
      vertex 0.265282 14.7 3.20435e-007
    endloop
  endfacet
  facet normal -0 0 -1
    outer loop
      vertex 2.8 -12.6226 3.20435e-007
      vertex -0.265282 -14.7 3.20435e-007
      vertex -0.265281 14.7 3.20435e-007
    endloop
  endfacet
  facet normal 0 0 -1
    outer loop
      vertex -2.78564 -16.1551 3.20435e-007
      vertex -0.265281 14.7 3.20435e-007
      vertex -0.265282 -14.7 3.20435e-007
    endloop
  endfacet
  facet normal -0 0 -1
    outer loop
      vertex -0.265281 14.7 3.20435e-007
      vertex -2.78564 -16.1551 3.20435e-007
      vertex -2.78564 16.1551 3.20435e-007
    endloop
  endfacet
  facet normal 0 0 -1
    outer loop
      vertex 2.8 16.24 3.20435e-007
      vertex 5.88 17.78 3.20435e-007
      vertex 5.83363 17.043 3.20435e-007
    endloop
  endfacet
  facet normal 0 0 -1
    outer loop
      vertex 2.8 16.24 3.20435e-007
      vertex 5.83363 17.043 3.20435e-007
      vertex 5.69527 16.3177 3.20435e-007
    endloop
  endfacet
  facet normal -0 0 -1
    outer loop
      vertex 5.88 17.78 3.20435e-007
      vertex 2.8 16.24 3.20435e-007
      vertex 5.83363 18.517 3.20435e-007
    endloop
  endfacet
  facet normal 0 0 -1
    outer loop
      vertex 2.8 16.24 3.20435e-007
      vertex 5.69527 16.3177 3.20435e-007
      vertex 5.46708 15.6154 3.20435e-007
    endloop
  endfacet
  facet normal -0 0 -1
    outer loop
      vertex 5.83363 18.517 3.20435e-007
      vertex 2.8 16.24 3.20435e-007
      vertex 5.69527 19.2423 3.20435e-007
    endloop
  endfacet
  facet normal 0 0 -1
    outer loop
      vertex 2.8 16.18 3.20435e-007
      vertex 5.46708 15.6154 3.20435e-007
      vertex 5.15268 14.9473 3.20435e-007
    endloop
  endfacet
  facet normal -0 0 -1
    outer loop
      vertex 5.69527 19.2423 3.20435e-007
      vertex 2.8 16.24 3.20435e-007
      vertex 5.46708 19.9446 3.20435e-007
    endloop
  endfacet
  facet normal 0 0 -1
    outer loop
      vertex 2.78564 16.1551 3.20435e-007
      vertex 5.15268 14.9473 3.20435e-007
      vertex 4.75702 14.3238 3.20435e-007
    endloop
  endfacet
  facet normal -0 0 -1
    outer loop
      vertex 5.46708 19.9446 3.20435e-007
      vertex 2.8 16.24 3.20435e-007
      vertex 5.15268 20.6127 3.20435e-007
    endloop
  endfacet
  facet normal 0 0 -1
    outer loop
      vertex 2.78564 16.1551 3.20435e-007
      vertex 4.75702 14.3238 3.20435e-007
      vertex 4.28633 13.7549 3.20435e-007
    endloop
  endfacet
  facet normal -0 0 -1
    outer loop
      vertex 5.15268 20.6127 3.20435e-007
      vertex 2.8 16.24 3.20435e-007
      vertex 4.75702 21.2362 3.20435e-007
    endloop
  endfacet
  facet normal 0 0 -1
    outer loop
      vertex 2.78564 16.1551 3.20435e-007
      vertex 4.28633 13.7549 3.20435e-007
      vertex 3.74805 13.2494 3.20435e-007
    endloop
  endfacet
  facet normal -0 0 -1
    outer loop
      vertex 4.75702 21.2362 3.20435e-007
      vertex 2.8 16.24 3.20435e-007
      vertex 4.28633 21.8051 3.20435e-007
    endloop
  endfacet
  facet normal 0 0 -1
    outer loop
      vertex 2.78564 16.1551 3.20435e-007
      vertex 3.74805 13.2494 3.20435e-007
      vertex 3.15066 12.8154 3.20435e-007
    endloop
  endfacet
  facet normal -0 0 -1
    outer loop
      vertex 4.28633 21.8051 3.20435e-007
      vertex 2.8 16.24 3.20435e-007
      vertex 3.74805 22.3106 3.20435e-007
    endloop
  endfacet
  facet normal 0 0 -1
    outer loop
      vertex 0.265282 14.7 3.20435e-007
      vertex 3.15066 12.8154 3.20435e-007
      vertex 2.8 12.6226 3.20435e-007
    endloop
  endfacet
  facet normal 0 0 -1
    outer loop
      vertex 5.46708 15.6154 3.20435e-007
      vertex 2.8 16.18 3.20435e-007
      vertex 2.8 16.24 3.20435e-007
    endloop
  endfacet
  facet normal -0 0 -1
    outer loop
      vertex 3.15066 22.7446 3.20435e-007
      vertex 2.8 16.24 3.20435e-007
      vertex 2.8 22.9374 3.20435e-007
    endloop
  endfacet
  facet normal 0 0 -1
    outer loop
      vertex 2.8 -19.38 3.20435e-007
      vertex 5.88 -17.78 3.20435e-007
      vertex 5.83363 -18.517 3.20435e-007
    endloop
  endfacet
  facet normal 0 0 -1
    outer loop
      vertex 2.8 -19.38 3.20435e-007
      vertex 5.83363 -18.517 3.20435e-007
      vertex 5.69527 -19.2423 3.20435e-007
    endloop
  endfacet
  facet normal 0 -0 -1
    outer loop
      vertex 2.8 -16.18 3.20435e-007
      vertex 5.88 -17.78 3.20435e-007
      vertex 2.8 -19.38 3.20435e-007
    endloop
  endfacet
  facet normal 0 0 -1
    outer loop
      vertex 2.8 -19.38 3.20435e-007
      vertex 5.69527 -19.2423 3.20435e-007
      vertex 5.46708 -19.9446 3.20435e-007
    endloop
  endfacet
  facet normal 0 0 -1
    outer loop
      vertex 5.88 -17.78 3.20435e-007
      vertex 2.8 -16.18 3.20435e-007
      vertex 5.83363 -17.043 3.20435e-007
    endloop
  endfacet
  facet normal 0 0 -1
    outer loop
      vertex 2.8 -19.38 3.20435e-007
      vertex 5.46708 -19.9446 3.20435e-007
      vertex 5.15268 -20.6127 3.20435e-007
    endloop
  endfacet
  facet normal 0 0 -1
    outer loop
      vertex 5.83363 -17.043 3.20435e-007
      vertex 2.8 -16.18 3.20435e-007
      vertex 5.69527 -16.3177 3.20435e-007
    endloop
  endfacet
  facet normal 0 0 -1
    outer loop
      vertex 2.78564 -19.4049 3.20435e-007
      vertex 5.15268 -20.6127 3.20435e-007
      vertex 4.75702 -21.2362 3.20435e-007
    endloop
  endfacet
  facet normal 0 0 -1
    outer loop
      vertex 5.69527 -16.3177 3.20435e-007
      vertex 2.8 -16.18 3.20435e-007
      vertex 5.46708 -15.6154 3.20435e-007
    endloop
  endfacet
  facet normal 0 0 -1
    outer loop
      vertex 2.78564 -19.4049 3.20435e-007
      vertex 4.75702 -21.2362 3.20435e-007
      vertex 4.28633 -21.8051 3.20435e-007
    endloop
  endfacet
  facet normal -0 0 -1
    outer loop
      vertex 5.46708 -15.6154 3.20435e-007
      vertex 2.8 -16.18 3.20435e-007
      vertex 5.15268 -14.9473 3.20435e-007
    endloop
  endfacet
  facet normal 0 0 -1
    outer loop
      vertex 2.78564 -19.4049 3.20435e-007
      vertex 4.28633 -21.8051 3.20435e-007
      vertex 3.74805 -22.3106 3.20435e-007
    endloop
  endfacet
  facet normal 0 0 -1
    outer loop
      vertex 2.78564 -16.1551 3.20435e-007
      vertex 5.15268 -14.9473 3.20435e-007
      vertex 2.8 -16.18 3.20435e-007
    endloop
  endfacet
  facet normal 0 0 -1
    outer loop
      vertex 2.78564 -19.4049 3.20435e-007
      vertex 3.74805 -22.3106 3.20435e-007
      vertex 3.15066 -22.7446 3.20435e-007
    endloop
  endfacet
  facet normal -0 0 -1
    outer loop
      vertex 5.15268 -14.9473 3.20435e-007
      vertex 2.78564 -16.1551 3.20435e-007
      vertex 4.75702 -14.3238 3.20435e-007
    endloop
  endfacet
  facet normal -0 0 -1
    outer loop
      vertex 4.28633 -13.7549 3.20435e-007
      vertex 2.78564 -16.1551 3.20435e-007
      vertex 3.74805 -13.2494 3.20435e-007
    endloop
  endfacet
  facet normal -0 0 -1
    outer loop
      vertex 4.75702 -14.3238 3.20435e-007
      vertex 2.78564 -16.1551 3.20435e-007
      vertex 4.28633 -13.7549 3.20435e-007
    endloop
  endfacet
  facet normal 0 0 -1
    outer loop
      vertex 5.15268 -20.6127 3.20435e-007
      vertex 2.78564 -19.4049 3.20435e-007
      vertex 2.8 -19.38 3.20435e-007
    endloop
  endfacet
  facet normal 0 0 -1
    outer loop
      vertex 0.0143595 -21.0049 3.20435e-007
      vertex 3.15066 -22.7446 3.20435e-007
      vertex 2.50358 -23.1004 3.20435e-007
    endloop
  endfacet
  facet normal 0 0 -1
    outer loop
      vertex 0.0143595 -21.0049 3.20435e-007
      vertex 2.50358 -23.1004 3.20435e-007
      vertex 1.81702 -23.3722 3.20435e-007
    endloop
  endfacet
  facet normal 0 0 -1
    outer loop
      vertex 0.0143595 -21.0049 3.20435e-007
      vertex 1.81702 -23.3722 3.20435e-007
      vertex 1.1018 -23.5558 3.20435e-007
    endloop
  endfacet
  facet normal 0 0 -1
    outer loop
      vertex 0.0143595 -21.0049 3.20435e-007
      vertex 1.1018 -23.5558 3.20435e-007
      vertex 0.369207 -23.6484 3.20435e-007
    endloop
  endfacet
  facet normal 0 0 -1
    outer loop
      vertex 3.15066 -22.7446 3.20435e-007
      vertex 0.0143595 -21.0049 3.20435e-007
      vertex 2.78564 -19.4049 3.20435e-007
    endloop
  endfacet
  facet normal 0 0 -1
    outer loop
      vertex -0.0143591 -21.0049 3.20435e-007
      vertex 0.0143595 -21.0049 3.20435e-007
      vertex 0.369207 -23.6484 3.20435e-007
    endloop
  endfacet
  facet normal 0 0 -1
    outer loop
      vertex 0.0143595 -21.0049 3.20435e-007
      vertex -0.0143591 -21.0049 3.20435e-007
      vertex 1.3097e-007 -20.98 3.20435e-007
    endloop
  endfacet
  facet normal 0 0 -1
    outer loop
      vertex -0.369207 -23.6484 3.20435e-007
      vertex -0.0143591 -21.0049 3.20435e-007
      vertex 0.369207 -23.6484 3.20435e-007
    endloop
  endfacet
  facet normal 0 0 -1
    outer loop
      vertex -1.1018 -23.5558 3.20435e-007
      vertex -0.0143591 -21.0049 3.20435e-007
      vertex -0.369207 -23.6484 3.20435e-007
    endloop
  endfacet
  facet normal 0 0 -1
    outer loop
      vertex -1.81702 -23.3722 3.20435e-007
      vertex -0.0143591 -21.0049 3.20435e-007
      vertex -1.1018 -23.5558 3.20435e-007
    endloop
  endfacet
  facet normal 0 0 -1
    outer loop
      vertex -2.50358 -23.1004 3.20435e-007
      vertex -0.0143591 -21.0049 3.20435e-007
      vertex -1.81702 -23.3722 3.20435e-007
    endloop
  endfacet
  facet normal 0 0 -1
    outer loop
      vertex -3.15066 -22.7446 3.20435e-007
      vertex -0.0143591 -21.0049 3.20435e-007
      vertex -2.50358 -23.1004 3.20435e-007
    endloop
  endfacet
  facet normal -0 0 -1
    outer loop
      vertex -0.0143591 -21.0049 3.20435e-007
      vertex -3.15066 -22.7446 3.20435e-007
      vertex -2.78564 -19.4049 3.20435e-007
    endloop
  endfacet
  facet normal 0 0 -1
    outer loop
      vertex -3.74805 -22.3106 3.20435e-007
      vertex -2.78564 -19.4049 3.20435e-007
      vertex -3.15066 -22.7446 3.20435e-007
    endloop
  endfacet
  facet normal 0 0 -1
    outer loop
      vertex -4.75702 -21.2362 3.20435e-007
      vertex -2.78564 -19.4049 3.20435e-007
      vertex -4.28633 -21.8051 3.20435e-007
    endloop
  endfacet
  facet normal 0 0 -1
    outer loop
      vertex -5.15268 -20.6127 3.20435e-007
      vertex -2.78564 -19.4049 3.20435e-007
      vertex -4.75702 -21.2362 3.20435e-007
    endloop
  endfacet
  facet normal 0 0 -1
    outer loop
      vertex -2.78564 -16.1551 3.20435e-007
      vertex -3.74805 -13.2494 3.20435e-007
      vertex -3.15066 -12.8154 3.20435e-007
    endloop
  endfacet
  facet normal 0 0 -1
    outer loop
      vertex -2.78564 -16.1551 3.20435e-007
      vertex -3.15066 -12.8154 3.20435e-007
      vertex -2.8 -12.6226 3.20435e-007
    endloop
  endfacet
  facet normal -0 0 -1
    outer loop
      vertex -2.78564 -19.4049 3.20435e-007
      vertex -5.15268 -20.6127 3.20435e-007
      vertex -2.8 -19.38 3.20435e-007
    endloop
  endfacet
  facet normal 0 0 -1
    outer loop
      vertex -2.78564 -16.1551 3.20435e-007
      vertex -4.28633 -13.7549 3.20435e-007
      vertex -3.74805 -13.2494 3.20435e-007
    endloop
  endfacet
  facet normal 0 0 -1
    outer loop
      vertex -5.46708 -19.9446 3.20435e-007
      vertex -2.8 -19.38 3.20435e-007
      vertex -5.15268 -20.6127 3.20435e-007
    endloop
  endfacet
  facet normal 0 0 -1
    outer loop
      vertex -2.78564 -16.1551 3.20435e-007
      vertex -4.75702 -14.3238 3.20435e-007
      vertex -4.28633 -13.7549 3.20435e-007
    endloop
  endfacet
  facet normal 0 0 -1
    outer loop
      vertex -5.69527 -19.2423 3.20435e-007
      vertex -2.8 -19.38 3.20435e-007
      vertex -5.46708 -19.9446 3.20435e-007
    endloop
  endfacet
  facet normal 0 0 -1
    outer loop
      vertex -2.78564 -16.1551 3.20435e-007
      vertex -5.15268 -14.9473 3.20435e-007
      vertex -4.75702 -14.3238 3.20435e-007
    endloop
  endfacet
  facet normal 0 0 -1
    outer loop
      vertex -5.83363 -18.517 3.20435e-007
      vertex -2.8 -19.38 3.20435e-007
      vertex -5.69527 -19.2423 3.20435e-007
    endloop
  endfacet
  facet normal 0 0 -1
    outer loop
      vertex -2.8 -16.18 3.20435e-007
      vertex -5.46708 -15.6154 3.20435e-007
      vertex -5.15268 -14.9473 3.20435e-007
    endloop
  endfacet
  facet normal 0 0 -1
    outer loop
      vertex -5.88 -17.78 3.20435e-007
      vertex -2.8 -19.38 3.20435e-007
      vertex -5.83363 -18.517 3.20435e-007
    endloop
  endfacet
  facet normal -0 0 -1
    outer loop
      vertex -2.8 -16.18 3.20435e-007
      vertex -5.69527 -16.3177 3.20435e-007
      vertex -5.46708 -15.6154 3.20435e-007
    endloop
  endfacet
  facet normal 0 0 -1
    outer loop
      vertex -2.8 -19.38 3.20435e-007
      vertex -5.88 -17.78 3.20435e-007
      vertex -2.8 -16.18 3.20435e-007
    endloop
  endfacet
  facet normal 0 0 -1
    outer loop
      vertex -2.8 -16.18 3.20435e-007
      vertex -5.83363 -17.043 3.20435e-007
      vertex -5.69527 -16.3177 3.20435e-007
    endloop
  endfacet
  facet normal 0 0 -1
    outer loop
      vertex -2.8 -16.18 3.20435e-007
      vertex -5.88 -17.78 3.20435e-007
      vertex -5.83363 -17.043 3.20435e-007
    endloop
  endfacet
  facet normal -0 0 -1
    outer loop
      vertex 3.74805 -13.2494 3.20435e-007
      vertex 2.78564 -16.1551 3.20435e-007
      vertex 3.15066 -12.8154 3.20435e-007
    endloop
  endfacet
  facet normal 0 0 -1
    outer loop
      vertex 0.265281 -14.7 3.20435e-007
      vertex 3.15066 -12.8154 3.20435e-007
      vertex 2.78564 -16.1551 3.20435e-007
    endloop
  endfacet
  facet normal -0 0 -1
    outer loop
      vertex 3.15066 -12.8154 3.20435e-007
      vertex 0.265281 -14.7 3.20435e-007
      vertex 2.8 -12.6226 3.20435e-007
    endloop
  endfacet
  facet normal -0 0 -1
    outer loop
      vertex 3.74805 22.3106 3.20435e-007
      vertex 2.8 16.24 3.20435e-007
      vertex 3.15066 22.7446 3.20435e-007
    endloop
  endfacet
  facet normal 0 0 -1
    outer loop
      vertex 2.8 -12.6226 3.20435e-007
      vertex 0.265282 14.7 3.20435e-007
      vertex 2.8 12.6226 3.20435e-007
    endloop
  endfacet
  facet normal 0 -0 -1
    outer loop
      vertex 2.78564 -16.1551 3.20435e-007
      vertex 2.8 -16.18 3.20435e-007
      vertex 2.77128 -16.18 3.20435e-007
    endloop
  endfacet
  facet normal 0 0 -1
    outer loop
      vertex 5.15268 14.9473 3.20435e-007
      vertex 2.78564 16.1551 3.20435e-007
      vertex 2.8 16.18 3.20435e-007
    endloop
  endfacet
  facet normal -0 0 -1
    outer loop
      vertex 2.8 16.18 3.20435e-007
      vertex 2.78564 16.1551 3.20435e-007
      vertex 2.77128 16.18 3.20435e-007
    endloop
  endfacet
  facet normal -0 0 -1
    outer loop
      vertex 2.8 -19.38 3.20435e-007
      vertex 2.78564 -19.4049 3.20435e-007
      vertex 2.77128 -19.38 3.20435e-007
    endloop
  endfacet
  facet normal -0 0 -1
    outer loop
      vertex -2.77128 -19.38 3.20435e-007
      vertex -2.78564 -19.4049 3.20435e-007
      vertex -2.8 -19.38 3.20435e-007
    endloop
  endfacet
  facet normal 0 0 -1
    outer loop
      vertex -4.28633 -21.8051 3.20435e-007
      vertex -2.78564 -19.4049 3.20435e-007
      vertex -3.74805 -22.3106 3.20435e-007
    endloop
  endfacet
  facet normal 0 0 -1
    outer loop
      vertex -2.78564 -16.1551 3.20435e-007
      vertex -2.8 -12.6226 3.20435e-007
      vertex -2.78564 16.1551 3.20435e-007
    endloop
  endfacet
  facet normal 0 0 -1
    outer loop
      vertex -2.8 12.6226 3.20435e-007
      vertex -2.78564 16.1551 3.20435e-007
      vertex -2.8 -12.6226 3.20435e-007
    endloop
  endfacet
  facet normal 0 0 -1
    outer loop
      vertex -2.78564 16.1551 3.20435e-007
      vertex -2.8 16.18 3.20435e-007
      vertex -2.77128 16.18 3.20435e-007
    endloop
  endfacet
  facet normal 0 0 -1
    outer loop
      vertex -3.15066 12.8154 3.20435e-007
      vertex -2.78564 16.1551 3.20435e-007
      vertex -2.8 12.6226 3.20435e-007
    endloop
  endfacet
  facet normal 0 0 -1
    outer loop
      vertex -3.74805 13.2494 3.20435e-007
      vertex -2.78564 16.1551 3.20435e-007
      vertex -3.15066 12.8154 3.20435e-007
    endloop
  endfacet
  facet normal 0 0 -1
    outer loop
      vertex -4.28633 13.7549 3.20435e-007
      vertex -2.78564 16.1551 3.20435e-007
      vertex -3.74805 13.2494 3.20435e-007
    endloop
  endfacet
  facet normal 0 0 -1
    outer loop
      vertex -4.75702 14.3238 3.20435e-007
      vertex -2.78564 16.1551 3.20435e-007
      vertex -4.28633 13.7549 3.20435e-007
    endloop
  endfacet
  facet normal 0 0 -1
    outer loop
      vertex -5.15268 14.9473 3.20435e-007
      vertex -2.78564 16.1551 3.20435e-007
      vertex -4.75702 14.3238 3.20435e-007
    endloop
  endfacet
  facet normal 0 -0 -1
    outer loop
      vertex -3.15066 22.7446 3.20435e-007
      vertex -2.8 16.24 3.20435e-007
      vertex -3.74805 22.3106 3.20435e-007
    endloop
  endfacet
  facet normal 0 0 -1
    outer loop
      vertex -2.8 16.24 3.20435e-007
      vertex -3.15066 22.7446 3.20435e-007
      vertex -2.8 22.9374 3.20435e-007
    endloop
  endfacet
  facet normal -0 0 -1
    outer loop
      vertex -2.78564 16.1551 3.20435e-007
      vertex -5.15268 14.9473 3.20435e-007
      vertex -2.8 16.18 3.20435e-007
    endloop
  endfacet
  facet normal 0 0 -1
    outer loop
      vertex -2.8 16.24 3.20435e-007
      vertex -4.28633 21.8051 3.20435e-007
      vertex -3.74805 22.3106 3.20435e-007
    endloop
  endfacet
  facet normal 0 0 -1
    outer loop
      vertex -5.46708 15.6154 3.20435e-007
      vertex -2.8 16.18 3.20435e-007
      vertex -5.15268 14.9473 3.20435e-007
    endloop
  endfacet
  facet normal 0 0 -1
    outer loop
      vertex -2.8 16.24 3.20435e-007
      vertex -4.75702 21.2362 3.20435e-007
      vertex -4.28633 21.8051 3.20435e-007
    endloop
  endfacet
  facet normal -0 0 -1
    outer loop
      vertex -2.8 16.18 3.20435e-007
      vertex -5.46708 15.6154 3.20435e-007
      vertex -2.8 16.24 3.20435e-007
    endloop
  endfacet
  facet normal 0 0 -1
    outer loop
      vertex -2.8 16.24 3.20435e-007
      vertex -5.15268 20.6127 3.20435e-007
      vertex -4.75702 21.2362 3.20435e-007
    endloop
  endfacet
  facet normal 0 0 -1
    outer loop
      vertex -5.69527 16.3177 3.20435e-007
      vertex -2.8 16.24 3.20435e-007
      vertex -5.46708 15.6154 3.20435e-007
    endloop
  endfacet
  facet normal 0 0 -1
    outer loop
      vertex -2.8 16.24 3.20435e-007
      vertex -5.46708 19.9446 3.20435e-007
      vertex -5.15268 20.6127 3.20435e-007
    endloop
  endfacet
  facet normal 0 0 -1
    outer loop
      vertex -5.83363 17.043 3.20435e-007
      vertex -2.8 16.24 3.20435e-007
      vertex -5.69527 16.3177 3.20435e-007
    endloop
  endfacet
  facet normal 0 0 -1
    outer loop
      vertex -2.8 16.24 3.20435e-007
      vertex -5.69527 19.2423 3.20435e-007
      vertex -5.46708 19.9446 3.20435e-007
    endloop
  endfacet
  facet normal 0 0 -1
    outer loop
      vertex -5.88 17.78 3.20435e-007
      vertex -2.8 16.24 3.20435e-007
      vertex -5.83363 17.043 3.20435e-007
    endloop
  endfacet
  facet normal 0 0 -1
    outer loop
      vertex -2.8 16.24 3.20435e-007
      vertex -5.83363 18.517 3.20435e-007
      vertex -5.69527 19.2423 3.20435e-007
    endloop
  endfacet
  facet normal 0 0 -1
    outer loop
      vertex -2.8 16.24 3.20435e-007
      vertex -5.88 17.78 3.20435e-007
      vertex -5.83363 18.517 3.20435e-007
    endloop
  endfacet
  facet normal 0.125333 -0.992115 0
    outer loop
      vertex 0.369207 -23.6484 3.20435e-007
      vertex 1.1018 -23.5558 2.772
      vertex 0.369207 -23.6484 2.772
    endloop
  endfacet
  facet normal 0.125333 -0.992115 0
    outer loop
      vertex 1.1018 -23.5558 2.772
      vertex 0.369207 -23.6484 3.20435e-007
      vertex 1.1018 -23.5558 3.20435e-007
    endloop
  endfacet
  facet normal 0.951056 0.309018 0
    outer loop
      vertex 5.69527 -16.3177 2.772
      vertex 5.46708 -15.6154 3.20435e-007
      vertex 5.46708 -15.6154 2.772
    endloop
  endfacet
  facet normal 0.951056 0.309018 0
    outer loop
      vertex 5.46708 -15.6154 3.20435e-007
      vertex 5.69527 -16.3177 2.772
      vertex 5.69527 -16.3177 3.20435e-007
    endloop
  endfacet
  facet normal 0.770514 0.637423 0
    outer loop
      vertex 4.75702 -14.3238 2.772
      vertex 4.28633 -13.7549 3.20435e-007
      vertex 4.28633 -13.7549 2.772
    endloop
  endfacet
  facet normal 0.770514 0.637423 0
    outer loop
      vertex 4.28633 -13.7549 3.20435e-007
      vertex 4.75702 -14.3238 2.772
      vertex 4.75702 -14.3238 3.20435e-007
    endloop
  endfacet
  facet normal 0.844327 0.535828 0
    outer loop
      vertex 5.15268 -14.9473 2.772
      vertex 4.75702 -14.3238 3.20435e-007
      vertex 4.75702 -14.3238 2.772
    endloop
  endfacet
  facet normal 0.844327 0.535828 0
    outer loop
      vertex 4.75702 -14.3238 3.20435e-007
      vertex 5.15268 -14.9473 2.772
      vertex 5.15268 -14.9473 3.20435e-007
    endloop
  endfacet
  facet normal 0.587785 0.809017 -0
    outer loop
      vertex 3.74805 -13.2494 3.20435e-007
      vertex 3.15066 -12.8154 2.772
      vertex 3.74805 -13.2494 2.772
    endloop
  endfacet
  facet normal 0.587785 0.809017 0
    outer loop
      vertex 3.15066 -12.8154 2.772
      vertex 3.74805 -13.2494 3.20435e-007
      vertex 3.15066 -12.8154 3.20435e-007
    endloop
  endfacet
  facet normal -0.770514 0.637423 0
    outer loop
      vertex -4.75702 -14.3238 3.20435e-007
      vertex -4.28633 -13.7549 2.772
      vertex -4.28633 -13.7549 3.20435e-007
    endloop
  endfacet
  facet normal -0.770514 0.637423 0
    outer loop
      vertex -4.28633 -13.7549 2.772
      vertex -4.75702 -14.3238 3.20435e-007
      vertex -4.75702 -14.3238 2.772
    endloop
  endfacet
  facet normal -0.982287 0.187381 0
    outer loop
      vertex -5.83363 -17.043 3.20435e-007
      vertex -5.69527 -16.3177 2.772
      vertex -5.69527 -16.3177 3.20435e-007
    endloop
  endfacet
  facet normal -0.982287 0.187381 0
    outer loop
      vertex -5.69527 -16.3177 2.772
      vertex -5.83363 -17.043 3.20435e-007
      vertex -5.83363 -17.043 2.772
    endloop
  endfacet
  facet normal 0.982287 -0.187381 0
    outer loop
      vertex 5.69527 -19.2423 2.772
      vertex 5.83363 -18.517 3.20435e-007
      vertex 5.83363 -18.517 2.772
    endloop
  endfacet
  facet normal 0.982287 -0.187381 0
    outer loop
      vertex 5.83363 -18.517 3.20435e-007
      vertex 5.69527 -19.2423 2.772
      vertex 5.69527 -19.2423 3.20435e-007
    endloop
  endfacet
  facet normal 0.998027 -0.0627896 0
    outer loop
      vertex 5.83363 -18.517 2.772
      vertex 5.88 -17.78 3.20435e-007
      vertex 5.88 -17.78 2.772
    endloop
  endfacet
  facet normal 0.998027 -0.0627896 0
    outer loop
      vertex 5.88 -17.78 3.20435e-007
      vertex 5.83363 -18.517 2.772
      vertex 5.83363 -18.517 3.20435e-007
    endloop
  endfacet
  facet normal 0.684546 -0.728969 0
    outer loop
      vertex 3.74805 -22.3106 3.20435e-007
      vertex 4.28633 -21.8051 2.772
      vertex 3.74805 -22.3106 2.772
    endloop
  endfacet
  facet normal 0.684546 -0.728969 0
    outer loop
      vertex 4.28633 -21.8051 2.772
      vertex 3.74805 -22.3106 3.20435e-007
      vertex 4.28633 -21.8051 3.20435e-007
    endloop
  endfacet
  facet normal -0.904827 -0.425779 0
    outer loop
      vertex -5.15268 -20.6127 3.20435e-007
      vertex -5.46708 -19.9446 2.772
      vertex -5.46708 -19.9446 3.20435e-007
    endloop
  endfacet
  facet normal -0.904827 -0.425779 0
    outer loop
      vertex -5.46708 -19.9446 2.772
      vertex -5.15268 -20.6127 3.20435e-007
      vertex -5.15268 -20.6127 2.772
    endloop
  endfacet
  facet normal -0.998027 -0.0627896 0
    outer loop
      vertex -5.83363 -18.517 3.20435e-007
      vertex -5.88 -17.78 2.772
      vertex -5.88 -17.78 3.20435e-007
    endloop
  endfacet
  facet normal -0.998027 -0.0627896 0
    outer loop
      vertex -5.88 -17.78 2.772
      vertex -5.83363 -18.517 3.20435e-007
      vertex -5.83363 -18.517 2.772
    endloop
  endfacet
  facet normal 0.368125 -0.929776 0
    outer loop
      vertex 1.81702 -23.3722 3.20435e-007
      vertex 2.50358 -23.1004 2.772
      vertex 1.81702 -23.3722 2.772
    endloop
  endfacet
  facet normal 0.368125 -0.929776 0
    outer loop
      vertex 2.50358 -23.1004 2.772
      vertex 1.81702 -23.3722 3.20435e-007
      vertex 2.50358 -23.1004 3.20435e-007
    endloop
  endfacet
  facet normal -0.951056 0.309018 0
    outer loop
      vertex -5.69527 -16.3177 3.20435e-007
      vertex -5.46708 -15.6154 2.772
      vertex -5.46708 -15.6154 3.20435e-007
    endloop
  endfacet
  facet normal -0.951056 0.309018 0
    outer loop
      vertex -5.46708 -15.6154 2.772
      vertex -5.69527 -16.3177 3.20435e-007
      vertex -5.69527 -16.3177 2.772
    endloop
  endfacet
  facet normal -0.481753 0.876307 0
    outer loop
      vertex -2.8 -12.6226 3.20435e-007
      vertex -3.15066 -12.8154 2.772
      vertex -2.8 -12.6226 2.772
    endloop
  endfacet
  facet normal -0.481753 0.876307 0
    outer loop
      vertex -3.15066 -12.8154 2.772
      vertex -2.8 -12.6226 3.20435e-007
      vertex -3.15066 -12.8154 3.20435e-007
    endloop
  endfacet
  facet normal 0.951056 -0.309017 0
    outer loop
      vertex 5.46708 -19.9446 2.772
      vertex 5.69527 -19.2423 3.20435e-007
      vertex 5.69527 -19.2423 2.772
    endloop
  endfacet
  facet normal 0.951056 -0.309017 0
    outer loop
      vertex 5.69527 -19.2423 3.20435e-007
      vertex 5.46708 -19.9446 2.772
      vertex 5.46708 -19.9446 3.20435e-007
    endloop
  endfacet
  facet normal 0.481753 -0.876307 0
    outer loop
      vertex 2.50358 -23.1004 3.20435e-007
      vertex 3.15066 -22.7446 2.772
      vertex 2.50358 -23.1004 2.772
    endloop
  endfacet
  facet normal 0.481753 -0.876307 0
    outer loop
      vertex 3.15066 -22.7446 2.772
      vertex 2.50358 -23.1004 3.20435e-007
      vertex 3.15066 -22.7446 3.20435e-007
    endloop
  endfacet
  facet normal 0.904827 -0.425779 0
    outer loop
      vertex 5.15268 -20.6127 2.772
      vertex 5.46708 -19.9446 3.20435e-007
      vertex 5.46708 -19.9446 2.772
    endloop
  endfacet
  facet normal 0.904827 -0.425779 0
    outer loop
      vertex 5.46708 -19.9446 3.20435e-007
      vertex 5.15268 -20.6127 2.772
      vertex 5.15268 -20.6127 3.20435e-007
    endloop
  endfacet
  facet normal 0.770514 -0.637423 0
    outer loop
      vertex 4.28633 -21.8051 2.772
      vertex 4.75702 -21.2362 3.20435e-007
      vertex 4.75702 -21.2362 2.772
    endloop
  endfacet
  facet normal 0.770514 -0.637423 0
    outer loop
      vertex 4.75702 -21.2362 3.20435e-007
      vertex 4.28633 -21.8051 2.772
      vertex 4.28633 -21.8051 3.20435e-007
    endloop
  endfacet
  facet normal -0.125333 -0.992115 0
    outer loop
      vertex -1.1018 -23.5558 3.20435e-007
      vertex -0.369207 -23.6484 2.772
      vertex -1.1018 -23.5558 2.772
    endloop
  endfacet
  facet normal -0.125333 -0.992115 -0
    outer loop
      vertex -0.369207 -23.6484 2.772
      vertex -1.1018 -23.5558 3.20435e-007
      vertex -0.369207 -23.6484 3.20435e-007
    endloop
  endfacet
  facet normal -0.982287 -0.187381 0
    outer loop
      vertex -5.69527 -19.2423 3.20435e-007
      vertex -5.83363 -18.517 2.772
      vertex -5.83363 -18.517 3.20435e-007
    endloop
  endfacet
  facet normal -0.982287 -0.187381 0
    outer loop
      vertex -5.83363 -18.517 2.772
      vertex -5.69527 -19.2423 3.20435e-007
      vertex -5.69527 -19.2423 2.772
    endloop
  endfacet
  facet normal -0.951056 -0.309017 0
    outer loop
      vertex -5.46708 -19.9446 3.20435e-007
      vertex -5.69527 -19.2423 2.772
      vertex -5.69527 -19.2423 3.20435e-007
    endloop
  endfacet
  facet normal -0.951056 -0.309017 0
    outer loop
      vertex -5.69527 -19.2423 2.772
      vertex -5.46708 -19.9446 3.20435e-007
      vertex -5.46708 -19.9446 2.772
    endloop
  endfacet
  facet normal 0.248691 -0.968583 0
    outer loop
      vertex 1.1018 -23.5558 3.20435e-007
      vertex 1.81702 -23.3722 2.772
      vertex 1.1018 -23.5558 2.772
    endloop
  endfacet
  facet normal 0.248691 -0.968583 0
    outer loop
      vertex 1.81702 -23.3722 2.772
      vertex 1.1018 -23.5558 3.20435e-007
      vertex 1.81702 -23.3722 3.20435e-007
    endloop
  endfacet
  facet normal 0.587786 -0.809017 0
    outer loop
      vertex 3.15066 -22.7446 3.20435e-007
      vertex 3.74805 -22.3106 2.772
      vertex 3.15066 -22.7446 2.772
    endloop
  endfacet
  facet normal 0.587786 -0.809017 0
    outer loop
      vertex 3.74805 -22.3106 2.772
      vertex 3.15066 -22.7446 3.20435e-007
      vertex 3.74805 -22.3106 3.20435e-007
    endloop
  endfacet
  facet normal 0.844328 -0.535827 0
    outer loop
      vertex 4.75702 -21.2362 2.772
      vertex 5.15268 -20.6127 3.20435e-007
      vertex 5.15268 -20.6127 2.772
    endloop
  endfacet
  facet normal 0.844328 -0.535827 0
    outer loop
      vertex 5.15268 -20.6127 3.20435e-007
      vertex 4.75702 -21.2362 2.772
      vertex 4.75702 -21.2362 3.20435e-007
    endloop
  endfacet
  facet normal -0.684546 -0.728969 0
    outer loop
      vertex -4.28633 -21.8051 3.20435e-007
      vertex -3.74805 -22.3106 2.772
      vertex -4.28633 -21.8051 2.772
    endloop
  endfacet
  facet normal -0.684546 -0.728969 -0
    outer loop
      vertex -3.74805 -22.3106 2.772
      vertex -4.28633 -21.8051 3.20435e-007
      vertex -3.74805 -22.3106 3.20435e-007
    endloop
  endfacet
  facet normal -0.248691 -0.968583 0
    outer loop
      vertex -1.81702 -23.3722 3.20435e-007
      vertex -1.1018 -23.5558 2.772
      vertex -1.81702 -23.3722 2.772
    endloop
  endfacet
  facet normal -0.248691 -0.968583 -0
    outer loop
      vertex -1.1018 -23.5558 2.772
      vertex -1.81702 -23.3722 3.20435e-007
      vertex -1.1018 -23.5558 3.20435e-007
    endloop
  endfacet
  facet normal -0.770514 -0.637423 0
    outer loop
      vertex -4.28633 -21.8051 3.20435e-007
      vertex -4.75702 -21.2362 2.772
      vertex -4.75702 -21.2362 3.20435e-007
    endloop
  endfacet
  facet normal -0.770514 -0.637423 0
    outer loop
      vertex -4.75702 -21.2362 2.772
      vertex -4.28633 -21.8051 3.20435e-007
      vertex -4.28633 -21.8051 2.772
    endloop
  endfacet
  facet normal -0.844328 -0.535827 0
    outer loop
      vertex -4.75702 -21.2362 3.20435e-007
      vertex -5.15268 -20.6127 2.772
      vertex -5.15268 -20.6127 3.20435e-007
    endloop
  endfacet
  facet normal -0.844328 -0.535827 0
    outer loop
      vertex -5.15268 -20.6127 2.772
      vertex -4.75702 -21.2362 3.20435e-007
      vertex -4.75702 -21.2362 2.772
    endloop
  endfacet
  facet normal -0.587786 -0.809017 0
    outer loop
      vertex -3.74805 -22.3106 3.20435e-007
      vertex -3.15066 -22.7446 2.772
      vertex -3.74805 -22.3106 2.772
    endloop
  endfacet
  facet normal -0.587786 -0.809017 -0
    outer loop
      vertex -3.15066 -22.7446 2.772
      vertex -3.74805 -22.3106 3.20435e-007
      vertex -3.15066 -22.7446 3.20435e-007
    endloop
  endfacet
  facet normal -0.368125 -0.929776 0
    outer loop
      vertex -2.50358 -23.1004 3.20435e-007
      vertex -1.81702 -23.3722 2.772
      vertex -2.50358 -23.1004 2.772
    endloop
  endfacet
  facet normal -0.368125 -0.929776 -0
    outer loop
      vertex -1.81702 -23.3722 2.772
      vertex -2.50358 -23.1004 3.20435e-007
      vertex -1.81702 -23.3722 3.20435e-007
    endloop
  endfacet
  facet normal -0.481753 -0.876307 0
    outer loop
      vertex -3.15066 -22.7446 3.20435e-007
      vertex -2.50358 -23.1004 2.772
      vertex -3.15066 -22.7446 2.772
    endloop
  endfacet
  facet normal -0.481753 -0.876307 -0
    outer loop
      vertex -2.50358 -23.1004 2.772
      vertex -3.15066 -22.7446 3.20435e-007
      vertex -2.50358 -23.1004 3.20435e-007
    endloop
  endfacet
  facet normal 0.866027 -0.499997 0
    outer loop
      vertex -2.78564 16.1551 2.772
      vertex -2.77128 16.18 3.20435e-007
      vertex -2.77128 16.18 2.772
    endloop
  endfacet
  facet normal 0.866027 -0.499997 0
    outer loop
      vertex -2.77128 16.18 3.20435e-007
      vertex -2.78564 16.1551 2.772
      vertex -2.78564 16.1551 3.20435e-007
    endloop
  endfacet
  facet normal 0.5 0.866025 -0
    outer loop
      vertex -0.265281 14.7 3.20435e-007
      vertex -2.78564 16.1551 2.772
      vertex -0.265281 14.7 2.772
    endloop
  endfacet
  facet normal 0.5 0.866025 0
    outer loop
      vertex -2.78564 16.1551 2.772
      vertex -0.265281 14.7 3.20435e-007
      vertex -2.78564 16.1551 3.20435e-007
    endloop
  endfacet
  facet normal -0.866033 -0.499986 0
    outer loop
      vertex 2.78564 16.1551 3.20435e-007
      vertex 2.77128 16.18 2.772
      vertex 2.77128 16.18 3.20435e-007
    endloop
  endfacet
  facet normal -0.866033 -0.499986 0
    outer loop
      vertex 2.77128 16.18 2.772
      vertex 2.78564 16.1551 3.20435e-007
      vertex 2.78564 16.1551 2.772
    endloop
  endfacet
  facet normal -0.5 0.866026 0
    outer loop
      vertex 2.78564 16.1551 3.20435e-007
      vertex 0.265282 14.7 2.772
      vertex 2.78564 16.1551 2.772
    endloop
  endfacet
  facet normal -0.5 0.866026 0
    outer loop
      vertex 0.265282 14.7 2.772
      vertex 2.78564 16.1551 3.20435e-007
      vertex 0.265282 14.7 3.20435e-007
    endloop
  endfacet
  facet normal 0 1 -0
    outer loop
      vertex 2.8 16.18 3.20435e-007
      vertex 2.77128 16.18 2.772
      vertex 2.8 16.18 2.772
    endloop
  endfacet
  facet normal 0 1 0
    outer loop
      vertex 2.77128 16.18 2.772
      vertex 2.8 16.18 3.20435e-007
      vertex 2.77128 16.18 3.20435e-007
    endloop
  endfacet
  facet normal 0 1 -0
    outer loop
      vertex -2.77128 16.18 3.20435e-007
      vertex -2.8 16.18 2.772
      vertex -2.77128 16.18 2.772
    endloop
  endfacet
  facet normal 0 1 0
    outer loop
      vertex -2.8 16.18 2.772
      vertex -2.77128 16.18 3.20435e-007
      vertex -2.8 16.18 3.20435e-007
    endloop
  endfacet
  facet normal -1 0 0
    outer loop
      vertex 2.8 16.18 3.20435e-007
      vertex 2.8 16.24 2.772
      vertex 2.8 16.24 3.20435e-007
    endloop
  endfacet
  facet normal -1 -0 0
    outer loop
      vertex 2.8 16.24 2.772
      vertex 2.8 16.18 3.20435e-007
      vertex 2.8 16.18 2.772
    endloop
  endfacet
  facet normal 1 -0 0
    outer loop
      vertex -2.8 16.18 2.772
      vertex -2.8 16.24 3.20435e-007
      vertex -2.8 16.24 2.772
    endloop
  endfacet
  facet normal 1 0 0
    outer loop
      vertex -2.8 16.24 3.20435e-007
      vertex -2.8 16.18 2.772
      vertex -2.8 16.18 3.20435e-007
    endloop
  endfacet
  facet normal 0.998027 0.0627896 0
    outer loop
      vertex 5.88 17.78 2.772
      vertex 5.83363 18.517 3.20435e-007
      vertex 5.83363 18.517 2.772
    endloop
  endfacet
  facet normal 0.998027 0.0627896 0
    outer loop
      vertex 5.83363 18.517 3.20435e-007
      vertex 5.88 17.78 2.772
      vertex 5.88 17.78 3.20435e-007
    endloop
  endfacet
  facet normal -0.998027 0.0627896 0
    outer loop
      vertex -5.88 17.78 3.20435e-007
      vertex -5.83363 18.517 2.772
      vertex -5.83363 18.517 3.20435e-007
    endloop
  endfacet
  facet normal -0.998027 0.0627896 0
    outer loop
      vertex -5.83363 18.517 2.772
      vertex -5.88 17.78 3.20435e-007
      vertex -5.88 17.78 2.772
    endloop
  endfacet
  facet normal 0.684546 0.728969 -0
    outer loop
      vertex 4.28633 21.8051 3.20435e-007
      vertex 3.74805 22.3106 2.772
      vertex 4.28633 21.8051 2.772
    endloop
  endfacet
  facet normal 0.684546 0.728969 0
    outer loop
      vertex 3.74805 22.3106 2.772
      vertex 4.28633 21.8051 3.20435e-007
      vertex 3.74805 22.3106 3.20435e-007
    endloop
  endfacet
  facet normal -0.684546 0.728969 0
    outer loop
      vertex -3.74805 22.3106 3.20435e-007
      vertex -4.28633 21.8051 2.772
      vertex -3.74805 22.3106 2.772
    endloop
  endfacet
  facet normal -0.684546 0.728969 0
    outer loop
      vertex -4.28633 21.8051 2.772
      vertex -3.74805 22.3106 3.20435e-007
      vertex -4.28633 21.8051 3.20435e-007
    endloop
  endfacet
  facet normal 0.904827 0.425779 0
    outer loop
      vertex 5.46708 19.9446 2.772
      vertex 5.15268 20.6127 3.20435e-007
      vertex 5.15268 20.6127 2.772
    endloop
  endfacet
  facet normal 0.904827 0.425779 0
    outer loop
      vertex 5.15268 20.6127 3.20435e-007
      vertex 5.46708 19.9446 2.772
      vertex 5.46708 19.9446 3.20435e-007
    endloop
  endfacet
  facet normal 0.982287 0.187381 0
    outer loop
      vertex 5.83363 18.517 2.772
      vertex 5.69527 19.2423 3.20435e-007
      vertex 5.69527 19.2423 2.772
    endloop
  endfacet
  facet normal 0.982287 0.187381 0
    outer loop
      vertex 5.69527 19.2423 3.20435e-007
      vertex 5.83363 18.517 2.772
      vertex 5.83363 18.517 3.20435e-007
    endloop
  endfacet
  facet normal 0.587786 0.809017 -0
    outer loop
      vertex 3.74805 22.3106 3.20435e-007
      vertex 3.15066 22.7446 2.772
      vertex 3.74805 22.3106 2.772
    endloop
  endfacet
  facet normal 0.587786 0.809017 0
    outer loop
      vertex 3.15066 22.7446 2.772
      vertex 3.74805 22.3106 3.20435e-007
      vertex 3.15066 22.7446 3.20435e-007
    endloop
  endfacet
  facet normal -0.904827 0.425779 0
    outer loop
      vertex -5.46708 19.9446 3.20435e-007
      vertex -5.15268 20.6127 2.772
      vertex -5.15268 20.6127 3.20435e-007
    endloop
  endfacet
  facet normal -0.904827 0.425779 0
    outer loop
      vertex -5.15268 20.6127 2.772
      vertex -5.46708 19.9446 3.20435e-007
      vertex -5.46708 19.9446 2.772
    endloop
  endfacet
  facet normal -0.844328 0.535827 0
    outer loop
      vertex -5.15268 20.6127 3.20435e-007
      vertex -4.75702 21.2362 2.772
      vertex -4.75702 21.2362 3.20435e-007
    endloop
  endfacet
  facet normal -0.844328 0.535827 0
    outer loop
      vertex -4.75702 21.2362 2.772
      vertex -5.15268 20.6127 3.20435e-007
      vertex -5.15268 20.6127 2.772
    endloop
  endfacet
  facet normal -0.982287 0.187381 0
    outer loop
      vertex -5.83363 18.517 3.20435e-007
      vertex -5.69527 19.2423 2.772
      vertex -5.69527 19.2423 3.20435e-007
    endloop
  endfacet
  facet normal -0.982287 0.187381 0
    outer loop
      vertex -5.69527 19.2423 2.772
      vertex -5.83363 18.517 3.20435e-007
      vertex -5.83363 18.517 2.772
    endloop
  endfacet
  facet normal -0.587786 0.809017 0
    outer loop
      vertex -3.15066 22.7446 3.20435e-007
      vertex -3.74805 22.3106 2.772
      vertex -3.15066 22.7446 2.772
    endloop
  endfacet
  facet normal -0.587786 0.809017 0
    outer loop
      vertex -3.74805 22.3106 2.772
      vertex -3.15066 22.7446 3.20435e-007
      vertex -3.74805 22.3106 3.20435e-007
    endloop
  endfacet
  facet normal 0.951056 0.309017 0
    outer loop
      vertex 5.69527 19.2423 2.772
      vertex 5.46708 19.9446 3.20435e-007
      vertex 5.46708 19.9446 2.772
    endloop
  endfacet
  facet normal 0.951056 0.309017 0
    outer loop
      vertex 5.46708 19.9446 3.20435e-007
      vertex 5.69527 19.2423 2.772
      vertex 5.69527 19.2423 3.20435e-007
    endloop
  endfacet
  facet normal 0.770514 0.637423 0
    outer loop
      vertex 4.75702 21.2362 2.772
      vertex 4.28633 21.8051 3.20435e-007
      vertex 4.28633 21.8051 2.772
    endloop
  endfacet
  facet normal 0.770514 0.637423 0
    outer loop
      vertex 4.28633 21.8051 3.20435e-007
      vertex 4.75702 21.2362 2.772
      vertex 4.75702 21.2362 3.20435e-007
    endloop
  endfacet
  facet normal 0.844328 0.535827 0
    outer loop
      vertex 5.15268 20.6127 2.772
      vertex 4.75702 21.2362 3.20435e-007
      vertex 4.75702 21.2362 2.772
    endloop
  endfacet
  facet normal 0.844328 0.535827 0
    outer loop
      vertex 4.75702 21.2362 3.20435e-007
      vertex 5.15268 20.6127 2.772
      vertex 5.15268 20.6127 3.20435e-007
    endloop
  endfacet
  facet normal 0.481753 0.876307 -0
    outer loop
      vertex 3.15066 22.7446 3.20435e-007
      vertex 2.8 22.9374 2.772
      vertex 3.15066 22.7446 2.772
    endloop
  endfacet
  facet normal 0.481753 0.876307 0
    outer loop
      vertex 2.8 22.9374 2.772
      vertex 3.15066 22.7446 3.20435e-007
      vertex 2.8 22.9374 3.20435e-007
    endloop
  endfacet
  facet normal -0.770514 0.637423 0
    outer loop
      vertex -4.75702 21.2362 3.20435e-007
      vertex -4.28633 21.8051 2.772
      vertex -4.28633 21.8051 3.20435e-007
    endloop
  endfacet
  facet normal -0.770514 0.637423 0
    outer loop
      vertex -4.28633 21.8051 2.772
      vertex -4.75702 21.2362 3.20435e-007
      vertex -4.75702 21.2362 2.772
    endloop
  endfacet
  facet normal -0.951056 0.309017 0
    outer loop
      vertex -5.69527 19.2423 3.20435e-007
      vertex -5.46708 19.9446 2.772
      vertex -5.46708 19.9446 3.20435e-007
    endloop
  endfacet
  facet normal -0.951056 0.309017 0
    outer loop
      vertex -5.46708 19.9446 2.772
      vertex -5.69527 19.2423 3.20435e-007
      vertex -5.69527 19.2423 2.772
    endloop
  endfacet
  facet normal -0.481753 0.876307 0
    outer loop
      vertex -2.8 22.9374 3.20435e-007
      vertex -3.15066 22.7446 2.772
      vertex -2.8 22.9374 2.772
    endloop
  endfacet
  facet normal -0.481753 0.876307 0
    outer loop
      vertex -3.15066 22.7446 2.772
      vertex -2.8 22.9374 3.20435e-007
      vertex -3.15066 22.7446 3.20435e-007
    endloop
  endfacet
  facet normal 0.998027 -0.0627895 0
    outer loop
      vertex 5.83363 17.043 2.772
      vertex 5.88 17.78 3.20435e-007
      vertex 5.88 17.78 2.772
    endloop
  endfacet
  facet normal 0.998027 -0.0627895 0
    outer loop
      vertex 5.88 17.78 3.20435e-007
      vertex 5.83363 17.043 2.772
      vertex 5.83363 17.043 3.20435e-007
    endloop
  endfacet
  facet normal 0.982287 -0.187381 0
    outer loop
      vertex 5.69527 16.3177 2.772
      vertex 5.83363 17.043 3.20435e-007
      vertex 5.83363 17.043 2.772
    endloop
  endfacet
  facet normal 0.982287 -0.187381 0
    outer loop
      vertex 5.83363 17.043 3.20435e-007
      vertex 5.69527 16.3177 2.772
      vertex 5.69527 16.3177 3.20435e-007
    endloop
  endfacet
  facet normal -0.904828 -0.425778 0
    outer loop
      vertex -5.15268 14.9473 3.20435e-007
      vertex -5.46708 15.6154 2.772
      vertex -5.46708 15.6154 3.20435e-007
    endloop
  endfacet
  facet normal -0.904828 -0.425778 0
    outer loop
      vertex -5.46708 15.6154 2.772
      vertex -5.15268 14.9473 3.20435e-007
      vertex -5.15268 14.9473 2.772
    endloop
  endfacet
  facet normal -0.998027 -0.0627895 0
    outer loop
      vertex -5.83363 17.043 3.20435e-007
      vertex -5.88 17.78 2.772
      vertex -5.88 17.78 3.20435e-007
    endloop
  endfacet
  facet normal -0.998027 -0.0627895 0
    outer loop
      vertex -5.88 17.78 2.772
      vertex -5.83363 17.043 3.20435e-007
      vertex -5.83363 17.043 2.772
    endloop
  endfacet
  facet normal -0.951056 -0.309018 0
    outer loop
      vertex -5.46708 15.6154 3.20435e-007
      vertex -5.69527 16.3177 2.772
      vertex -5.69527 16.3177 3.20435e-007
    endloop
  endfacet
  facet normal -0.951056 -0.309018 0
    outer loop
      vertex -5.69527 16.3177 2.772
      vertex -5.46708 15.6154 3.20435e-007
      vertex -5.46708 15.6154 2.772
    endloop
  endfacet
  facet normal 0.951056 -0.309018 0
    outer loop
      vertex 5.46708 15.6154 2.772
      vertex 5.69527 16.3177 3.20435e-007
      vertex 5.69527 16.3177 2.772
    endloop
  endfacet
  facet normal 0.951056 -0.309018 0
    outer loop
      vertex 5.69527 16.3177 3.20435e-007
      vertex 5.46708 15.6154 2.772
      vertex 5.46708 15.6154 3.20435e-007
    endloop
  endfacet
  facet normal 0.481753 -0.876307 0
    outer loop
      vertex 2.8 12.6226 3.20435e-007
      vertex 3.15066 12.8154 2.772
      vertex 2.8 12.6226 2.772
    endloop
  endfacet
  facet normal 0.481753 -0.876307 0
    outer loop
      vertex 3.15066 12.8154 2.772
      vertex 2.8 12.6226 3.20435e-007
      vertex 3.15066 12.8154 3.20435e-007
    endloop
  endfacet
  facet normal 0.684547 -0.728969 0
    outer loop
      vertex 3.74805 13.2494 3.20435e-007
      vertex 4.28633 13.7549 2.772
      vertex 3.74805 13.2494 2.772
    endloop
  endfacet
  facet normal 0.684547 -0.728969 0
    outer loop
      vertex 4.28633 13.7549 2.772
      vertex 3.74805 13.2494 3.20435e-007
      vertex 4.28633 13.7549 3.20435e-007
    endloop
  endfacet
  facet normal 0.904828 -0.425778 0
    outer loop
      vertex 5.15268 14.9473 2.772
      vertex 5.46708 15.6154 3.20435e-007
      vertex 5.46708 15.6154 2.772
    endloop
  endfacet
  facet normal 0.904828 -0.425778 0
    outer loop
      vertex 5.46708 15.6154 3.20435e-007
      vertex 5.15268 14.9473 2.772
      vertex 5.15268 14.9473 3.20435e-007
    endloop
  endfacet
  facet normal 0.770514 -0.637423 0
    outer loop
      vertex 4.28633 13.7549 2.772
      vertex 4.75702 14.3238 3.20435e-007
      vertex 4.75702 14.3238 2.772
    endloop
  endfacet
  facet normal 0.770514 -0.637423 0
    outer loop
      vertex 4.75702 14.3238 3.20435e-007
      vertex 4.28633 13.7549 2.772
      vertex 4.28633 13.7549 3.20435e-007
    endloop
  endfacet
  facet normal -0.982287 -0.187381 0
    outer loop
      vertex -5.69527 16.3177 3.20435e-007
      vertex -5.83363 17.043 2.772
      vertex -5.83363 17.043 3.20435e-007
    endloop
  endfacet
  facet normal -0.982287 -0.187381 0
    outer loop
      vertex -5.83363 17.043 2.772
      vertex -5.69527 16.3177 3.20435e-007
      vertex -5.69527 16.3177 2.772
    endloop
  endfacet
  facet normal 0.587785 -0.809017 0
    outer loop
      vertex 3.15066 12.8154 3.20435e-007
      vertex 3.74805 13.2494 2.772
      vertex 3.15066 12.8154 2.772
    endloop
  endfacet
  facet normal 0.587785 -0.809017 0
    outer loop
      vertex 3.74805 13.2494 2.772
      vertex 3.15066 12.8154 3.20435e-007
      vertex 3.74805 13.2494 3.20435e-007
    endloop
  endfacet
  facet normal 0.844327 -0.535828 0
    outer loop
      vertex 4.75702 14.3238 2.772
      vertex 5.15268 14.9473 3.20435e-007
      vertex 5.15268 14.9473 2.772
    endloop
  endfacet
  facet normal 0.844327 -0.535828 0
    outer loop
      vertex 5.15268 14.9473 3.20435e-007
      vertex 4.75702 14.3238 2.772
      vertex 4.75702 14.3238 3.20435e-007
    endloop
  endfacet
  facet normal -0.684547 -0.728969 0
    outer loop
      vertex -4.28633 13.7549 3.20435e-007
      vertex -3.74805 13.2494 2.772
      vertex -4.28633 13.7549 2.772
    endloop
  endfacet
  facet normal -0.684547 -0.728969 -0
    outer loop
      vertex -3.74805 13.2494 2.772
      vertex -4.28633 13.7549 3.20435e-007
      vertex -3.74805 13.2494 3.20435e-007
    endloop
  endfacet
  facet normal -0.770514 -0.637423 0
    outer loop
      vertex -4.28633 13.7549 3.20435e-007
      vertex -4.75702 14.3238 2.772
      vertex -4.75702 14.3238 3.20435e-007
    endloop
  endfacet
  facet normal -0.770514 -0.637423 0
    outer loop
      vertex -4.75702 14.3238 2.772
      vertex -4.28633 13.7549 3.20435e-007
      vertex -4.28633 13.7549 2.772
    endloop
  endfacet
  facet normal -0.844327 -0.535828 0
    outer loop
      vertex -4.75702 14.3238 3.20435e-007
      vertex -5.15268 14.9473 2.772
      vertex -5.15268 14.9473 3.20435e-007
    endloop
  endfacet
  facet normal -0.844327 -0.535828 0
    outer loop
      vertex -5.15268 14.9473 2.772
      vertex -4.75702 14.3238 3.20435e-007
      vertex -4.75702 14.3238 2.772
    endloop
  endfacet
  facet normal -0.481753 -0.876307 0
    outer loop
      vertex -3.15066 12.8154 3.20435e-007
      vertex -2.8 12.6226 2.772
      vertex -3.15066 12.8154 2.772
    endloop
  endfacet
  facet normal -0.481753 -0.876307 -0
    outer loop
      vertex -2.8 12.6226 2.772
      vertex -3.15066 12.8154 3.20435e-007
      vertex -2.8 12.6226 3.20435e-007
    endloop
  endfacet
  facet normal -0.587785 -0.809017 0
    outer loop
      vertex -3.74805 13.2494 3.20435e-007
      vertex -3.15066 12.8154 2.772
      vertex -3.74805 13.2494 2.772
    endloop
  endfacet
  facet normal -0.587785 -0.809017 -0
    outer loop
      vertex -3.15066 12.8154 2.772
      vertex -3.74805 13.2494 3.20435e-007
      vertex -3.15066 12.8154 3.20435e-007
    endloop
  endfacet
  facet normal 1 -0 0
    outer loop
      vertex -2.8 16.24 2.772
      vertex -2.8 22.9374 3.20435e-007
      vertex -2.8 22.9374 2.772
    endloop
  endfacet
  facet normal 1 0 0
    outer loop
      vertex -2.8 22.9374 3.20435e-007
      vertex -2.8 16.24 2.772
      vertex -2.8 16.24 3.20435e-007
    endloop
  endfacet
  facet normal -1 0 0
    outer loop
      vertex 2.8 16.24 3.20435e-007
      vertex 2.8 22.9374 2.772
      vertex 2.8 22.9374 3.20435e-007
    endloop
  endfacet
  facet normal -1 -0 0
    outer loop
      vertex 2.8 22.9374 2.772
      vertex 2.8 16.24 3.20435e-007
      vertex 2.8 16.24 2.772
    endloop
  endfacet
  facet normal -1 0 0
    outer loop
      vertex -2.8 -12.6226 3.20435e-007
      vertex -2.8 12.6226 2.772
      vertex -2.8 12.6226 3.20435e-007
    endloop
  endfacet
  facet normal -1 -0 0
    outer loop
      vertex -2.8 12.6226 2.772
      vertex -2.8 -12.6226 3.20435e-007
      vertex -2.8 -12.6226 2.772
    endloop
  endfacet
  facet normal 1 -0 0
    outer loop
      vertex 2.8 -12.6226 2.772
      vertex 2.8 12.6226 3.20435e-007
      vertex 2.8 12.6226 2.772
    endloop
  endfacet
  facet normal 1 0 0
    outer loop
      vertex 2.8 12.6226 3.20435e-007
      vertex 2.8 -12.6226 2.772
      vertex 2.8 -12.6226 3.20435e-007
    endloop
  endfacet
  facet normal 0 -1 0
    outer loop
      vertex -0.265282 -14.7 3.20435e-007
      vertex 0.265281 -14.7 2.772
      vertex -0.265282 -14.7 2.772
    endloop
  endfacet
  facet normal 0 -1 -0
    outer loop
      vertex 0.265281 -14.7 2.772
      vertex -0.265282 -14.7 3.20435e-007
      vertex 0.265281 -14.7 3.20435e-007
    endloop
  endfacet
  facet normal 0 1 -0
    outer loop
      vertex 0.265282 14.7 3.20435e-007
      vertex -0.265281 14.7 2.772
      vertex 0.265282 14.7 2.772
    endloop
  endfacet
  facet normal 0 1 0
    outer loop
      vertex -0.265281 14.7 2.772
      vertex 0.265282 14.7 3.20435e-007
      vertex -0.265281 14.7 3.20435e-007
    endloop
  endfacet
endsolid OpenSCAD_Model
